<?xml version="1.0" standalone="no"?>
<!DOCTYPE svg PUBLIC "-//W3C//DTD SVG 20010904//EN"
 "http://www.w3.org/TR/2001/REC-SVG-20010904/DTD/svg10.dtd">
<svg version="1.0" xmlns="http://www.w3.org/2000/svg"
 width="832.000000pt" height="832.000000pt" viewBox="0 0 832.000000 832.000000"
 preserveAspectRatio="xMidYMid meet">
<metadata>
Created by potrace 1.14, written by Peter Selinger 2001-2017
</metadata>
<g transform="translate(0.000000,832.000000) scale(0.100000,-0.100000)"
fill="#000000" stroke="none">
<path d="M1300 7015 l0 -315 -315 0 -315 0 0 -2229 0 -2229 63 -4 c34 -1 84
-1 110 2 26 3 52 3 57 0 5 -3 38 -3 74 0 37 3 66 2 66 -3 0 -4 5 -5 10 -2 6 4
48 6 93 5 45 -1 96 -1 112 0 17 1 44 3 60 3 l30 2 1 938 c0 515 3 940 6 943 5
4 364 7 541 5 l37 -1 0 -314 0 -315 276 1 c152 0 278 -3 281 -6 3 -2 15 -1 27
4 37 14 47 -1 46 -66 0 -32 -1 -68 -1 -79 0 -11 0 -96 0 -190 0 -93 0 -177 1
-185 0 -8 0 -36 0 -62 l-1 -48 316 0 315 0 0 -315 0 -314 78 -1 c92 -1 103 -1
163 0 25 1 50 0 55 -1 5 -1 14 -1 19 1 6 1 35 1 65 0 95 -1 164 1 172 6 4 3 8
2 8 -3 0 -4 27 -6 59 -5 l60 4 0 653 0 654 -310 -1 c-170 0 -312 2 -315 5 -8
8 -9 565 -2 572 3 3 144 7 314 8 l309 2 2 1598 2 1597 -1285 0 -1284 0 0 -315z
m1878 -364 c9 -1 12 -66 12 -291 l0 -290 -315 0 -314 0 -1 -52 c-1 -70 -1 -71
-1 -193 0 -58 0 -111 0 -117 0 -7 0 -60 0 -118 0 -58 0 -112 0 -120 0 -8 0
-62 0 -120 0 -58 0 -112 0 -120 0 -8 0 -91 1 -185 1 -93 1 -185 1 -202 l-1
-33 -292 0 -293 0 0 917 0 918 24 5 c20 4 1128 5 1179 1z"/>
<path d="M5713 7018 l0 -313 -315 -5 -315 -5 0 -1766 c0 -972 -3 -1772 -7
-1778 -4 -6 -4 -11 1 -11 9 0 9 -188 -1 -210 -5 -13 -35 -15 -189 -14 -101 0
-189 4 -195 8 -6 3 -13 3 -15 -1 -3 -5 -55 -8 -115 -7 l-110 1 -1 -337 0 -337
67 -3 c37 -1 72 -2 77 -1 6 0 42 0 80 1 149 0 189 1 197 6 4 3 8 0 8 -6 0 -6
5 -8 10 -5 6 4 48 6 93 5 45 -1 89 -1 97 -1 8 0 44 0 80 0 36 -1 70 -1 75 0 6
0 42 0 80 1 149 0 189 1 197 6 4 3 8 1 8 -5 0 -6 6 -8 13 -6 19 8 177 11 177
4 0 -3 11 -4 25 -2 l24 5 1 257 c0 141 0 265 0 276 0 70 1 312 1 320 0 6 0 91
-1 190 0 99 -1 187 0 196 0 12 11 18 36 21 19 2 38 0 40 -4 3 -5 10 -6 15 -2
8 5 342 8 479 4 13 0 15 -76 14 -630 l-1 -630 101 0 c125 -1 130 -1 187 0 25
1 50 0 55 -1 5 -1 14 -1 19 1 6 1 35 1 65 0 95 -1 164 1 172 6 4 3 8 2 8 -3 0
-4 33 -7 72 -5 40 1 102 2 138 2 36 -1 74 0 85 0 110 4 245 4 245 -1 0 -3 19
-3 43 1 23 3 53 3 67 0 14 -4 31 -5 38 -2 9 3 12 459 12 2233 l0 2229 -315 0
-315 0 0 315 0 315 -654 0 -654 0 1 -312z m624 -1001 c7 -8 8 -566 0 -573 -3
-3 -54 -5 -114 -4 -59 0 -115 1 -123 1 -80 -3 -224 0 -230 4 -5 3 -11 2 -13
-2 -3 -5 -26 -7 -51 -5 -39 3 -46 7 -46 25 0 79 1 129 1 135 1 4 1 12 0 17 -2
9 -2 227 -1 360 l0 50 285 -1 c157 -1 288 -4 292 -7z"/>
</g>
</svg>
